    <svg width="336" height="62" viewBox="0 0 336 62" fill="none" xmlns="http://www.w3.org/2000/svg">
        <path d="M63.7639 31.0007C63.7639 26.9611 60.4892 23.6857 56.4488 23.6857H35.8564V38.315H56.4488C60.4884 38.315 63.7639 35.0404 63.7639 31V31.0007Z" fill="currentColor"/>
        <path d="M51.6804 0.388817H0V15.0182H51.6804C60.5064 15.0182 67.6619 22.1728 67.6619 30.9996C67.6619 39.8256 60.5072 46.981 51.6804 46.981H0V61.6104H51.6804C68.5864 61.6104 82.2912 47.9056 82.2912 30.9996C82.2912 14.0936 68.5864 0.388817 51.6804 0.388817Z" fill="currentColor"/>
        <path d="M305.389 0.388817H282.325C265.419 0.388817 251.714 14.0936 251.714 30.9996C251.714 47.9056 265.419 61.6104 282.325 61.6104H305.389C322.295 61.6104 336 47.9056 336 30.9996C336 14.0936 322.295 0.388817 305.389 0.388817ZM321.371 30.9996C321.371 39.8256 314.216 46.981 305.389 46.981H282.325C273.499 46.981 266.344 39.8264 266.344 30.9996C266.344 22.1736 273.498 15.0182 282.325 15.0182H305.389C314.215 15.0182 321.371 22.1728 321.371 30.9996Z" fill="currentColor"/>
        <path d="M152.346 0.388817H117.644C100.738 0.388817 87.0327 14.0936 87.0327 30.9996C87.0327 47.9056 100.738 61.6104 117.643 61.6104H128.969L121.565 46.981H117.643C108.818 46.981 101.662 39.8264 101.662 30.9996C101.662 22.1736 108.817 15.0182 117.643 15.0182H152.346C161.172 15.0182 168.327 22.1728 168.327 30.9996C168.327 39.8256 161.173 46.981 152.346 46.981H147.578L138.403 28.8534H122.007L136.123 56.7458C137.633 59.7297 140.693 61.6112 144.038 61.6112H152.345C169.251 61.6112 182.956 47.9064 182.956 31.0004C182.957 14.0936 169.251 0.388817 152.346 0.388817Z" fill="currentColor"/>
        <path d="M202.984 0.388817H188.355V61.6104H202.984V0.388817Z" fill="currentColor"/>
        <path d="M228.465 30.9609L259.093 0.388817H238.385L218.111 20.6256L207.757 30.9609L218.111 41.2962L238.462 61.6104H259.171L228.465 30.9609Z" fill="currentColor"/>
    </svg>
